  0
SECTION
  2
HEADER
  9
$ACADVER
  1
AC1009
  0
ENDSEC
  0
SECTION
  2
TABLES
  0
TABLE
  2
LAYER
  70
1
  0
LAYER
  2
Layer_0
  70
0
  62
7
  6
CONTINUOUS
  0
ENDTAB
  0
ENDSEC
  0
SECTION
  2
ENTITIES
  0
POLYLINE
  5
90
  8
Layer_0
  62
7
  70
1
  66
1
  10
0
  20
0
  30
0
  0
VERTEX
  5
90
  8
Layer_0
  10
32.482075
  20
57.743652
  0
VERTEX
  5
91
  8
Layer_0
  10
26.019876
  20
57.743652
  0
VERTEX
  5
92
  8
Layer_0
  10
19.557678
  20
57.743652
  42
0.2182684
  0
VERTEX
  5
93
  8
Layer_0
  10
16.119877
  20
50.243656
  42
0.21826799
  0
VERTEX
  5
94
  8
Layer_0
  10
19.557678
  20
42.743656
  0
VERTEX
  5
95
  8
Layer_0
  10
26.019876
  20
42.743656
  0
VERTEX
  5
96
  8
Layer_0
  10
32.482075
  20
42.743656
  42
0.21826802
  0
VERTEX
  5
97
  8
Layer_0
  10
35.919876
  20
50.243652
  42
0.21826828
  0
SEQEND
  0
POLYLINE
  5
99
  8
Layer_0
  62
7
  70
1
  66
1
  10
0
  20
0
  30
0
  0
VERTEX
  5
99
  8
Layer_0
  10
31
  20
5.2500029
  0
VERTEX
  5
9a
  8
Layer_0
  10
31
  20
2.7500029
  0
VERTEX
  5
9b
  8
Layer_0
  10
26
  20
2.7500029
  0
VERTEX
  5
9c
  8
Layer_0
  10
21
  20
2.7500029
  0
VERTEX
  5
9d
  8
Layer_0
  10
21
  20
5.2500029
  0
VERTEX
  5
9e
  8
Layer_0
  10
8.5
  20
5.2500029
  0
VERTEX
  5
9f
  8
Layer_0
  10
8.5
  20
56.25
  42
-0.41421351
  0
VERTEX
  5
a0
  8
Layer_0
  10
17.5
  20
65.25
  0
VERTEX
  5
a1
  8
Layer_0
  10
34.5
  20
65.25
  42
-0.41421345
  0
VERTEX
  5
a2
  8
Layer_0
  10
43.5
  20
56.25
  0
VERTEX
  5
a3
  8
Layer_0
  10
43.5
  20
5.2500029
  0
SEQEND
  0
POLYLINE
  5
a5
  8
Layer_0
  62
7
  70
1
  66
1
  10
0
  20
0
  30
0
  0
VERTEX
  5
a5
  8
Layer_0
  10
287
  20
3
  0
VERTEX
  5
a6
  8
Layer_0
  10
207
  20
3
  0
VERTEX
  5
a7
  8
Layer_0
  10
207
  20
83
  0
VERTEX
  5
a8
  8
Layer_0
  10
287
  20
83
  0
SEQEND
  0
POLYLINE
  5
aa
  8
Layer_0
  62
7
  70
1
  66
1
  10
0
  20
0
  30
0
  0
VERTEX
  5
aa
  8
Layer_0
  10
191.68314
  20
87.321671
  0
VERTEX
  5
ab
  8
Layer_0
  10
191.73015
  20
93.783691
  0
VERTEX
  5
ac
  8
Layer_0
  10
191.77718
  20
100.24572
  42
0.2182684
  0
VERTEX
  5
ad
  8
Layer_0
  10
184.30238
  20
103.73801
  42
0.21826799
  0
VERTEX
  5
ae
  8
Layer_0
  10
176.77757
  20
100.35487
  0
VERTEX
  5
af
  8
Layer_0
  10
176.73055
  20
93.892845
  0
VERTEX
  5
b0
  8
Layer_0
  10
176.68353
  20
87.430817
  42
0.21826796
  0
VERTEX
  5
b1
  8
Layer_0
  10
184.15831
  20
83.93853
  42
0.21826823
  0
SEQEND
  0
POLYLINE
  5
b3
  8
Layer_0
  62
7
  70
1
  66
1
  10
0
  20
0
  30
0
  0
VERTEX
  5
b3
  8
Layer_0
  10
139.20164
  20
89.185677
  0
VERTEX
  5
b4
  8
Layer_0
  10
136.70172
  20
89.203873
  0
VERTEX
  5
b5
  8
Layer_0
  10
136.7381
  20
94.203735
  0
VERTEX
  5
b6
  8
Layer_0
  10
136.77448
  20
99.203606
  0
VERTEX
  5
b7
  8
Layer_0
  10
139.27441
  20
99.185417
  0
VERTEX
  5
b8
  8
Layer_0
  10
139.36537
  20
111.68508
  0
VERTEX
  5
b9
  8
Layer_0
  10
190.36401
  20
111.31397
  42
-0.41421351
  0
VERTEX
  5
ba
  8
Layer_0
  10
199.29828
  20
102.24873
  0
VERTEX
  5
bb
  8
Layer_0
  10
199.17459
  20
85.249176
  42
-0.41421345
  0
VERTEX
  5
bc
  8
Layer_0
  10
190.10934
  20
76.314903
  0
VERTEX
  5
bd
  8
Layer_0
  10
139.11069
  20
76.686005
  0
SEQEND
  0
CIRCLE
  5
bf
  8
Layer_0
  62
7
  10
141.15321
  20
53.5
  30
0
  40
1.5
  0
CIRCLE
  5
bf
  8
Layer_0
  62
7
  10
168
  20
38
  30
0
  40
35
  0
CIRCLE
  5
bf
  8
Layer_0
  62
7
  10
136.88109
  20
38
  30
0
  40
1.5
  0
CIRCLE
  5
bf
  8
Layer_0
  62
7
  10
168
  20
69
  30
0
  40
1.5
  0
CIRCLE
  5
bf
  8
Layer_0
  62
7
  10
152.5
  20
64.846786
  30
0
  40
1.5
  0
CIRCLE
  5
bf
  8
Layer_0
  62
7
  10
141.15321
  20
22.5
  30
0
  40
1.5
  0
CIRCLE
  5
bf
  8
Layer_0
  62
7
  10
152.5
  20
11.153214
  30
0
  40
1.5
  0
CIRCLE
  5
bf
  8
Layer_0
  62
7
  10
168
  20
7
  30
0
  40
1.5
  0
CIRCLE
  5
bf
  8
Layer_0
  62
7
  10
199
  20
38
  30
0
  40
1.5
  0
CIRCLE
  5
bf
  8
Layer_0
  62
7
  10
183.5
  20
64.846786
  30
0
  40
1.5
  0
CIRCLE
  5
bf
  8
Layer_0
  62
7
  10
194.8468
  20
22.5
  30
0
  40
1.5
  0
CIRCLE
  5
bf
  8
Layer_0
  62
7
  10
194.8468
  20
53.5
  30
0
  40
1.5
  0
CIRCLE
  5
bf
  8
Layer_0
  62
7
  10
183.5
  20
11.153214
  30
0
  40
1.5
  0
POLYLINE
  5
bf
  8
Layer_0
  62
7
  70
1
  66
1
  10
0
  20
0
  30
0
  0
VERTEX
  5
bf
  8
Layer_0
  10
130
  20
4
  0
VERTEX
  5
c0
  8
Layer_0
  10
50
  20
4
  0
VERTEX
  5
c1
  8
Layer_0
  10
50
  20
84
  0
VERTEX
  5
c2
  8
Layer_0
  10
130
  20
84
  0
SEQEND
  0
POLYLINE
  5
c4
  8
Layer_0
  62
7
  70
1
  66
1
  10
0
  20
0
  30
0
  0
VERTEX
  5
c4
  8
Layer_0
  10
95
  20
37
  0
VERTEX
  5
c5
  8
Layer_0
  10
85
  20
37
  0
VERTEX
  5
c6
  8
Layer_0
  10
85
  20
39.800003
  0
VERTEX
  5
c7
  8
Layer_0
  10
95
  20
39.800003
  0
SEQEND
  0
POLYLINE
  5
c9
  8
Layer_0
  62
7
  70
1
  66
1
  10
0
  20
0
  30
0
  0
VERTEX
  5
c9
  8
Layer_0
  10
95
  20
48.199997
  0
VERTEX
  5
ca
  8
Layer_0
  10
85
  20
48.199997
  0
VERTEX
  5
cb
  8
Layer_0
  10
85
  20
50.999992
  0
VERTEX
  5
cc
  8
Layer_0
  10
95
  20
50.999992
  0
SEQEND
  0
ENDSEC
  0
EOF
